<?xml version="1.0" encoding="UTF-8"?>
<!DOCTYPE svg PUBLIC "-//W3C//DTD SVG 1.1//EN" "http://www.w3.org/Graphics/SVG/1.1/DTD/svg11.dtd">
<!-- Creator: CorelDRAW X7 -->
<svg xmlns="http://www.w3.org/2000/svg" xml:space="preserve" width="118.533mm" height="25.4mm" version="1.1" style="shape-rendering:geometricPrecision; text-rendering:geometricPrecision; image-rendering:optimizeQuality; fill-rule:evenodd; clip-rule:evenodd"
viewBox="0 0 11853 2540"
 xmlns:xlink="http://www.w3.org/1999/xlink">
 <defs>
  <style type="text/css">
   <![CDATA[
    .str0 {stroke:#373435;stroke-width:20}
    .fil0 {fill:none}
    .fil1 {fill:#00A859}
   ]]>
  </style>
 </defs>
 <g id="Camada_x0020_1">
  <metadata id="CorelCorpID_0Corel-Layer"/>
  <path class="fil0 str0" d="M8 8l11837 0 0 1570c-2327,877 -4218,912 -5673,107 -1855,-1059 -3910,-1064 -6164,-14l0 -1663zm11837 1570c-2327,877 -4218,912 -5673,107 -1855,-1059 -3910,-1064 -6164,-14l0 861 11837 0 0 -954z"/>
  <path class="fil1" d="M8 2532l11837 0 0 -954c-2327,877 -4218,912 -5673,107 -1855,-1059 -3910,-1064 -6164,-14l0 861z"/>
 </g>
</svg>
